<svg width="45" height="45" viewBox="0 0 45 45" fill="none" xmlns="http://www.w3.org/2000/svg">
<path d="M22.5 0C10.0909 0 0 10.0909 0 22.5C0 29.0386 2.80227 34.9364 7.275 39.0477C7.47955 39.2386 7.69091 39.4227 7.90227 39.6C11.8295 42.9682 16.9295 45 22.5 45C28.0705 45 33.1705 42.9682 37.0977 39.6C37.3091 39.4227 37.5205 39.2386 37.725 39.0477C42.1977 34.9364 45 29.0386 45 22.5C45 10.0909 34.9091 0 22.5 0ZM37.6023 38.2364C36.6205 32.6523 32.6045 28.0977 27.3205 26.3523C26.7818 26.6591 26.2159 26.9114 25.6227 27.1091C24.6409 27.4364 23.5909 27.6136 22.5 27.6136C21.4091 27.6136 20.3591 27.4364 19.3773 27.1091C18.7841 26.9114 18.2182 26.6591 17.6795 26.3523C12.3955 28.0977 8.37955 32.6523 7.39773 38.2364C3.25909 34.2614 0.681818 28.6773 0.681818 22.5C0.681818 10.4659 10.4659 0.681818 22.5 0.681818C34.5341 0.681818 44.3182 10.4659 44.3182 22.5C44.3182 28.6773 41.7409 34.2614 37.6023 38.2364Z" fill="#337767"/>
<path d="M31.0227 17.7273C31.0227 21.4841 28.575 24.6818 25.1932 25.8137C24.3477 26.1 23.4409 26.25 22.5 26.25C21.5591 26.25 20.6523 26.1 19.8068 25.8137C16.425 24.6818 13.9773 21.4841 13.9773 17.7273C13.9773 13.0296 17.8023 9.20456 22.5 9.20456C27.1977 9.20456 31.0227 13.0296 31.0227 17.7273Z" fill="#337767"/>
<path d="M31.0227 17.7273C31.0227 21.4841 28.575 24.6818 25.1932 25.8137C24.3477 26.1 23.4409 26.25 22.5 26.25C21.5591 26.25 20.6523 26.1 19.8068 25.8137C16.425 24.6818 13.9773 21.4841 13.9773 17.7273C13.9773 13.0296 17.8023 9.20456 22.5 9.20456C27.1977 9.20456 31.0227 13.0296 31.0227 17.7273Z" fill="#337767"/>
</svg>
