<svg width="86" height="82" viewBox="0 0 86 82" fill="none" xmlns="http://www.w3.org/2000/svg">
<path d="M62.914 71.8836C54.0109 71.8836 45.226 71.8836 36.3327 71.8836C36.9397 66.7088 35.5411 62.2368 31.8601 58.5977C29.3511 56.1152 26.2884 54.7796 22.7936 54.3648C17.1328 53.6913 8.66521 57.1385 6.48963 66.4453C4.5957 64.6997 3.10646 62.6955 2.02838 60.3985C-0.427244 55.1619 -0.623111 49.8115 1.27729 44.3569C1.51201 43.6801 1.84708 43.4719 2.56095 43.4866C6.17235 43.5598 9.78376 43.602 13.3952 43.5988C36.3991 43.5776 59.4046 43.5467 82.4085 43.4882C83.1709 43.4865 83.4817 43.7387 83.731 44.4154C87.6807 55.1798 82.1139 67.0228 71.3039 70.7692C70.7018 70.9775 70.4622 71.228 70.4816 71.9015C70.535 73.878 70.5059 75.8578 70.4994 77.8376C70.4929 79.845 69.3372 80.9903 67.3186 80.9984C66.833 81 66.3474 81.0066 65.8617 80.9968C64.1264 80.9643 62.9302 79.7621 62.9172 78.0035C62.9011 76.001 62.914 73.9984 62.914 71.8836Z" fill="white"/>
<path d="M28.1272 31.193C28.4137 31.193 28.6549 31.193 28.8945 31.193C36.7162 31.193 44.5396 31.1995 52.3614 31.1816C52.9263 31.18 53.1691 31.3248 53.3714 31.899C54.3734 34.7264 56.3645 36.4426 59.3559 36.7745C60.6558 36.9193 62.0155 36.9209 63.3024 36.7127C65.7888 36.3109 67.5451 34.8289 68.5973 32.5205C68.7187 32.2537 68.8223 31.9787 68.9664 31.629C74.0686 32.7889 78.1123 35.4763 81.2801 39.7857C55.3949 39.7857 29.6359 39.7857 3.71338 39.7857C6.58664 35.8228 10.2855 33.2314 14.9393 31.8844C16.1566 35.8212 18.9182 37.3341 22.8242 36.7615C25.9112 36.3109 27.5412 34.2758 28.1272 31.193Z" fill="white"/>
<path d="M31.4619 7.13132C31.4619 13.8564 31.4619 20.5116 31.4619 27.248C29.1455 27.248 26.8647 27.248 24.4479 27.248C24.4479 28.2583 24.4074 29.1953 24.456 30.1291C24.6081 33.1028 22.227 33.6348 20.0805 32.9857C19.0623 32.6782 18.5686 31.8014 18.5508 30.7196C18.5314 29.6134 18.546 28.5055 18.546 27.2692C14.7678 27.4465 11.6 26.285 9.12652 23.0981C11.1564 23.0981 13.005 23.1177 14.852 23.0916C16.1648 23.0721 17.0179 21.8813 16.6116 20.697C16.3461 19.9243 15.7083 19.4721 14.8067 19.4688C12.623 19.459 10.4377 19.4476 8.25402 19.4769C7.6648 19.4851 7.33782 19.3631 7.33458 18.7042C7.32972 17.9754 7.2763 17.2466 7.23098 16.5178C7.19375 15.9436 7.45922 15.7923 8.00635 15.7988C10.2176 15.8264 12.4288 15.8167 14.6399 15.8085C15.8783 15.8037 16.6974 15.0895 16.7184 14.024C16.7395 12.9373 15.888 12.176 14.6173 12.1711C12.6505 12.1629 10.6821 12.1695 8.60367 12.1695C8.72508 11.9238 8.79144 11.7335 8.90314 11.574C10.865 8.7337 13.5619 7.1541 17.0049 7.09879C21.696 7.02233 26.3888 7.07764 31.0799 7.07927C31.1802 7.07764 31.2854 7.10692 31.4619 7.13132Z" fill="white"/>
<path d="M65.5364 27.7979C65.5364 28.5023 65.5769 29.2099 65.5283 29.9095C65.4021 31.7803 64.0051 33.1223 62.15 33.1825C61.5042 33.2037 60.8567 33.1972 60.2092 33.1874C58.1129 33.1549 56.6674 31.7103 56.6301 29.5922C56.6091 28.3738 56.5945 27.1521 56.6382 25.9352C56.6625 25.2878 56.4796 24.9527 55.8499 24.6598C51.005 22.4051 48.3147 17.5134 48.8132 11.9824C49.2568 7.05975 53.0608 2.68209 58.0174 1.39206C64.1735 -0.210316 70.6047 3.20754 72.7398 9.21848C74.8863 15.2636 72.1247 21.9773 66.3442 24.6598C65.7291 24.9462 65.4863 25.265 65.5429 25.9255C65.5963 26.5437 65.5542 27.1716 65.5542 27.7946C65.5478 27.7979 65.5413 27.7979 65.5364 27.7979ZM61.0979 4.6326C56.2319 4.64073 52.3356 8.58241 52.3437 13.4904C52.3534 18.304 56.3388 22.275 61.1318 22.2473C65.9363 22.2181 69.8617 18.2438 69.852 13.4156C69.8423 8.57591 65.9039 4.62446 61.0979 4.6326Z" fill="white"/>
<path d="M32.8249 69.4483C32.846 75.7976 27.7567 80.974 21.4711 80.9968C15.056 81.0212 9.93274 75.9131 9.92141 69.4825C9.91007 63.1152 15.0253 57.9811 21.3966 57.9649C27.6741 57.9502 32.8039 63.1055 32.8249 69.4483ZM21.4501 61.6007C17.0989 61.5666 13.5393 65.0885 13.5166 69.4499C13.494 73.7592 16.9904 77.3251 21.2995 77.3902C25.5633 77.4553 29.1876 73.8926 29.2249 69.6012C29.2621 65.2089 25.7915 61.6349 21.4501 61.6007Z" fill="white"/>
<path d="M35.2029 26.9129C35.2029 20.3879 35.2029 13.9215 35.2029 7.45181C39.0215 7.85037 42.6442 12.2231 42.832 16.6122C43.0408 21.5397 39.7548 26.0182 35.2029 26.9129Z" fill="white"/>
<path d="M65.305 13.6482C65.3001 12.6721 66.0852 11.8848 67.0402 11.9059C67.971 11.9271 68.714 12.6884 68.7189 13.6271C68.7237 14.608 67.9516 15.3824 66.9804 15.3693C66.048 15.3563 65.3098 14.5966 65.305 13.6482Z" fill="white"/>
<path d="M60.9781 9.30957C60.0182 9.29818 59.3075 8.57914 59.3011 7.61447C59.2946 6.63352 60.0651 5.85592 61.0299 5.86894C61.9833 5.88195 62.7506 6.69859 62.7182 7.6649C62.6858 8.60517 61.9283 9.32095 60.9781 9.30957Z" fill="white"/>
<path d="M53.2938 13.6352C53.2955 12.6868 54.0287 11.9287 54.9628 11.9059C55.9178 11.8831 56.7175 12.6721 56.7159 13.6384C56.7142 14.6096 55.9211 15.3905 54.9595 15.3661C54.0206 15.3433 53.2906 14.5836 53.2938 13.6352Z" fill="white"/>
<path d="M59.3027 19.69C59.2962 18.7075 60.0716 17.9217 61.0298 17.9412C61.9639 17.9608 62.7085 18.7172 62.7182 19.6575C62.7279 20.6238 61.9347 21.4209 60.9797 21.4047C60.0424 21.3884 59.3091 20.6384 59.3027 19.69Z" fill="white"/>
<path d="M19.5108 69.5231C19.4914 68.4868 20.283 67.6571 21.3157 67.6295C22.3663 67.6035 23.1886 68.3681 23.2259 69.4076C23.2647 70.4764 22.4472 71.3451 21.3886 71.3581C20.3785 71.3727 19.5319 70.5447 19.5108 69.5231Z" fill="white"/>
</svg>
