<svg width="14" height="14" viewBox="0 0 14 14" fill="none" xmlns="http://www.w3.org/2000/svg">
<path d="M6.98969 14C5.13402 14 3.27835 14 1.42268 14C0.756015 14 0.19244 13.5533 0.0412375 12.921C0.0137461 12.8041 0 12.6873 0 12.5704C0 8.85911 0 5.14089 0 1.42955C0 0.62543 0.618558 0 1.42268 0C5.14089 0 8.85911 0 12.5773 0C13.3746 0 14 0.625429 14 1.41581C14 5.13402 14 8.85911 14 12.5773C14 13.3746 13.3746 13.9931 12.5773 13.9931C10.7148 14 8.85223 14 6.98969 14ZM7.71134 7.70447C7.71134 9.34708 7.71134 10.9691 7.71134 12.5911C8.41924 12.5911 9.10653 12.5911 9.80756 12.5911C9.80756 12.5292 9.80756 12.4811 9.80756 12.433C9.80756 10.9003 9.80756 9.37457 9.80756 7.84192C9.80756 7.71821 9.84192 7.69759 9.95876 7.69759C10.5567 7.70447 11.1615 7.69759 11.7595 7.69759C11.8076 7.69759 11.8488 7.69759 11.9038 7.69759C11.9038 6.98969 11.9038 6.3024 11.9038 5.5945C11.2027 5.5945 10.5155 5.5945 9.82818 5.5945C9.82131 5.56701 9.82131 5.55326 9.82131 5.53265C9.82131 5.08591 9.81443 4.64605 9.82131 4.19931C9.82131 4.08935 9.84192 3.97938 9.89003 3.87629C10.0137 3.58763 10.2612 3.49828 10.5498 3.49141C10.9622 3.49141 11.3677 3.49141 11.7801 3.49141C11.8213 3.49141 11.8694 3.49141 11.9107 3.49141C11.9107 2.7835 11.9107 2.08935 11.9107 1.38832C11.8625 1.38832 11.8282 1.38832 11.7869 1.38832C11.2715 1.38832 10.756 1.38832 10.2406 1.38832C9.82131 1.38832 9.42268 1.46392 9.05842 1.6701C8.2543 2.11684 7.78007 2.79038 7.73196 3.71821C7.70447 4.29553 7.72509 4.87285 7.71821 5.45017C7.71821 5.49141 7.71134 5.53952 7.71134 5.5945C7.24399 5.5945 6.78351 5.5945 6.32303 5.5945C6.31615 5.62199 6.31615 5.63574 6.31615 5.64948C6.31615 6.30241 6.31615 6.94845 6.31615 7.60137C6.31615 7.68385 6.35739 7.69072 6.42612 7.69072C6.77664 7.69072 7.12027 7.69072 7.47079 7.69072C7.53265 7.70447 7.60825 7.70447 7.71134 7.70447Z" fill="#414141"/>
</svg>
