<?xml version="1.0" encoding="utf-8"?>
<!-- Generator: Adobe Illustrator 24.3.0, SVG Export Plug-In . SVG Version: 6.00 Build 0)  -->
<svg version="1.1" id="Layer_1" xmlns="http://www.w3.org/2000/svg" xmlns:xlink="http://www.w3.org/1999/xlink" x="0px" y="0px"
	 viewBox="0 0 28.1 29" style="enable-background:new 0 0 28.1 29;" xml:space="preserve">
<style type="text/css">
	.st0{fill:#FFFFFF;}
</style>
<path class="st0" d="M27.8,11.9c-0.2-1.1-0.5-2.2-0.9-3.3c0,0,0,0,0,0c-0.1-0.1-0.1-0.3-0.2-0.4c-0.1-0.2-0.2-0.4-0.3-0.6
	c-0.1-0.1-0.1-0.2-0.2-0.3c-0.3-0.5-0.6-1-0.9-1.4v0c-0.1-0.2-0.3-0.4-0.4-0.5c-0.1-0.1-0.1-0.2-0.2-0.3c-0.1-0.2-0.3-0.3-0.4-0.5
	c-0.1-0.2-0.3-0.3-0.4-0.4c-0.2-0.2-0.3-0.3-0.5-0.4c-0.1-0.1-0.1-0.1-0.2-0.2c-2.2-1.9-5-3.2-7.9-3.4c-0.1,0-0.2,0-0.3,0
	c-0.1,0-0.2,0-0.3,0c-0.2,0-0.4,0-0.6,0h0c-0.2,0-0.4,0-0.6,0c0,0-0.1,0-0.1,0c-0.1,0-0.2,0-0.3,0c-0.1,0-0.2,0-0.4,0
	c-0.1,0-0.2,0-0.4,0c-0.1,0-0.2,0-0.3,0c-0.2,0-0.5,0.1-0.7,0.1c-0.1,0-0.2,0-0.3,0.1c-0.1,0-0.2,0.1-0.3,0.1
	c-0.1,0-0.2,0.1-0.4,0.1c-0.1,0-0.2,0.1-0.3,0.1C9.6,0.7,9.3,0.8,9.1,0.9C4.3,2.8,1,7.2,0.2,12.1c0,0.2,0,0.3-0.1,0.5
	c0,0.1,0,0.3,0,0.4c0,0,0,0.1,0,0.1c0,0,0,0.1,0,0.1c0,0.1,0,0.3,0,0.4c0,0.1,0,0.2,0,0.3c0,0.1,0,0.2,0,0.3c0,0.1,0,0.1,0,0.2
	c0,0,0,0.1,0,0.1c0,1,0.1,2,0.3,3c0.9,4.3,3.5,7.8,6.9,9.8c0.1,0,0.1,0.1,0.2,0.1l0.2,0.1c1.9,1,4,1.6,6.3,1.6H14c0.1,0,0.2,0,0.3,0
	c7.5-0.2,13.5-6.3,13.7-14c0-0.1,0-0.3,0-0.4C28,13.7,27.9,12.8,27.8,11.9z M2.2,12C3.2,6.6,7.8,2.4,13.3,2c0.1,0,0.3,0,0.5,0
	c0,0,0,0,0,0c0.1,0,0.2,0,0.3,0h0.1c0.1,0,0.1,0,0.2,0c0.1,0,0.2,0,0.3,0c0.1,0,0.3,0,0.4,0c0.1,0,0.2,0,0.3,0c0,0,0.1,0,0.1,0
	c0.1,0,0.2,0,0.2,0c0,0,0,0,0,0c0.2,0,0.3,0.1,0.5,0.1c4.9,0.9,8.7,4.8,9.7,9.8c0.1,0.3-0.1,0.6-0.4,0.7l-6.1,1.4
	c-0.3-2.1-1.1-4-1.9-5.4c-1.4-2.5-3.1-3.9-3.4-4.3c-0.4,0.3-1.9,1.7-3.3,4c0,0,0,0,0,0C9.9,9.9,9,11.9,8.7,14.2l-6.1-1.5
	C2.3,12.6,2.1,12.3,2.2,12z M12.3,26.9c-0.6-0.1-1.3-0.2-1.8-0.4c0,0,0,0-0.1,0c-0.3-0.1-0.5-0.2-0.8-0.3c0,0-0.1,0-0.1,0
	C5.1,24.3,2,19.9,1.9,14.7c1,0.1,2.1,0.3,3.3,0.6c1.2,0.3,2.3,0.7,3.2,1c0,0,0,0.1,0,0.1v0.1c0,0.2,0,0.4,0,0.6
	C8.7,21.7,10.7,25,12.3,26.9C12.3,26.9,12.3,26.9,12.3,26.9z M14,26.1c-0.4-0.4-3.4-3.8-3.4-9.3c0-1.2,0.1-2.3,0.4-3.4
	c0.5-2.3,1.5-4.5,3.1-6c1.6,1.5,2.6,3.7,3,6c0.2,1,0.4,2.1,0.4,3.4C17.5,22.4,14.5,25.7,14,26.1z M22.6,23.5c0,0-2.7,2.6-6.7,3.3
	c0,0,0,0,0,0c0,0,0,0,0,0c0.1-0.1,0.1-0.1,0.2-0.2c1.5-1.9,3.5-5.2,3.6-9.5c0-0.2,0-0.4,0-0.6c0-0.1,0-0.2,0-0.3
	c0.9-0.4,2.1-0.8,3.4-1.1c1.2-0.3,2.3-0.4,3.2-0.5C26.1,15.4,26.1,20.1,22.6,23.5z"/>
</svg>
