<svg width="50" height="80" viewBox="0 0 50 80" fill="none" xmlns="http://www.w3.org/2000/svg">
<path d="M24.9911 68.9608C17.354 68.9608 9.71681 68.9608 2.0708 68.9608C0.371681 68.9608 0 68.5917 0 66.8784C0 58.9796 0 51.0808 0 43.1732C0 41.8289 0.460177 41.3808 1.83186 41.3808C17.2832 41.3808 32.7345 41.3808 48.1858 41.3808C49.5398 41.3808 49.9911 41.8377 49.9911 43.1995C49.9911 51.1862 49.9911 59.1729 49.9911 67.1596C49.9911 68.5039 49.5221 68.952 48.1504 68.952C40.4425 68.9608 32.7168 68.9608 24.9911 68.9608Z" fill="white"/>
<path d="M0.398193 38.578C1.2389 33.9125 5.69023 29.7742 10.5309 29.1416C11.2478 29.045 11.9646 28.9747 12.6902 28.9747C20.9026 28.9659 29.115 28.9483 37.3274 28.9659C43.2212 28.9747 48.2124 32.7879 49.5929 38.2705C49.6106 38.3496 49.6106 38.4374 49.6194 38.5692C33.2212 38.578 16.8407 38.578 0.398193 38.578Z" fill="white"/>
<path d="M0.0884616 71.7285C16.7168 71.7285 33.292 71.7285 49.8584 71.7285C50.5929 75.2254 48.407 78.9595 44.6017 79.803C44.0177 79.9348 43.3982 79.9787 42.7964 79.9875C30.938 79.9963 19.0708 80.0051 7.21235 79.9963C2.59289 79.9875 -0.531007 76.3852 0.0884616 71.7285Z" fill="white"/>
<path d="M9.73453 26.3046C9.73453 24.4241 9.70798 22.5348 9.74338 20.6456C9.76108 19.8459 10.3186 19.3538 11.1682 19.3275C12.0089 19.3011 12.8407 19.3187 13.6814 19.3187C21.8938 19.3187 30.1062 19.3187 38.3186 19.3275C39.8673 19.3275 40.2832 19.7405 40.2832 21.2519C40.2832 22.9391 40.2832 24.635 40.2832 26.3222C30.0974 26.3046 19.9646 26.3046 9.73453 26.3046Z" fill="white"/>
<path d="M31.4159 16.5159C27.1062 16.5159 22.8672 16.5159 18.5398 16.5159C18.7345 14.7938 18.9203 13.1244 19.115 11.4463C19.4955 8.14263 19.8672 4.83901 20.2655 1.53539C20.4071 0.358039 20.8407 0.00658967 22.0265 0.00658967C24.0177 -0.00219656 26.0177 -0.00219656 28.0088 0.00658967C29.1504 0.00658967 29.5929 0.375611 29.7256 1.49146C30.3009 6.30631 30.8495 11.1124 31.4159 15.9272C31.4248 16.103 31.4159 16.2699 31.4159 16.5159Z" fill="white"/>
</svg>
