<svg width="14" height="14" viewBox="0 0 14 14" fill="none" xmlns="http://www.w3.org/2000/svg">
<path d="M13.9921 7.00399C13.9921 8.20855 14.0124 9.41311 13.988 10.6137C13.9636 11.886 13.3665 12.8593 12.2616 13.5254C11.7132 13.8564 11.112 14 10.4701 14C8.15467 14 5.84327 14 3.52781 14C2.66255 14 1.89886 13.7288 1.24078 13.1823C0.65176 12.6957 0.273974 12.0815 0.0952363 11.3476C0.0302409 11.0883 0.00180543 10.8251 0.00180543 10.5538C0.00180543 8.18462 -0.00225679 5.81538 0.00180543 3.44615C0.00586764 2.41709 0.408027 1.55157 1.18797 0.861538C1.6795 0.426781 2.25633 0.159544 2.91035 0.0478632C3.10534 0.0159544 3.30438 0 3.5075 0C5.83514 0 8.15873 0 10.4864 0C11.7822 0 12.9603 0.690028 13.5737 1.80684C13.858 2.32137 13.9921 2.87578 13.9921 3.46211C13.9921 4.64274 13.9921 5.82336 13.9921 7.00399ZM12.9034 6.99601C12.9034 6.01083 12.9034 5.02165 12.9034 4.03647C12.9034 3.90484 12.8953 3.77322 12.8831 3.63761C12.8506 3.31453 12.7572 3.0114 12.6109 2.72023C12.3591 2.21766 11.9894 1.81481 11.506 1.51567C11.0551 1.24046 10.5636 1.0849 10.0314 1.0849C8.02468 1.08091 6.02201 1.08091 4.01527 1.0849C3.87716 1.0849 3.73904 1.09687 3.60093 1.11681C2.97535 1.21652 2.43507 1.47578 1.98823 1.91054C1.39514 2.4849 1.09454 3.18291 1.09048 4.00456C1.08642 6.00285 1.09048 7.99715 1.09048 9.99544C1.09048 10.3145 1.13923 10.6256 1.24078 10.9288C1.37483 11.3157 1.57794 11.6627 1.85824 11.9618C2.21165 12.3407 2.63412 12.612 3.13377 12.7715C3.4425 12.8712 3.75935 12.9111 4.08433 12.9111C5.98545 12.9111 7.88656 12.9111 9.78768 12.9111C9.87705 12.9111 9.97048 12.9071 10.0598 12.9071C10.4823 12.8952 10.8845 12.7954 11.2623 12.612C12.2656 12.1254 12.9034 11.1162 12.9034 10.0194C12.9034 9.01425 12.9034 8.00513 12.9034 6.99601Z" fill="#414141"/>
<path d="M6.99694 10.514C5.01864 10.514 3.41406 8.93846 3.41813 6.99601C3.41813 5.0735 5.00645 3.48604 7.001 3.48604C8.95898 3.48604 10.5798 5.03761 10.5798 7.00399C10.5757 8.96638 8.95492 10.5179 6.99694 10.514ZM9.62925 7.00798C9.62925 6.95214 9.63331 6.8963 9.62925 6.84046C9.58457 6.21026 9.35708 5.65584 8.91836 5.19316C8.28872 4.53504 7.51284 4.25983 6.6029 4.38746C6.07888 4.45926 5.61578 4.68262 5.23394 5.0416C4.54336 5.69174 4.26713 6.48946 4.40118 7.4188C4.48243 7.97721 4.72616 8.45983 5.12832 8.86268C5.71328 9.449 6.42823 9.70826 7.26098 9.63647C7.79313 9.5886 8.26841 9.38518 8.67057 9.04615C9.30427 8.50769 9.613 7.82165 9.62925 7.00798Z" fill="#414141"/>
<path d="M9.63331 3.34644C9.63331 2.76011 10.1127 2.28946 10.7098 2.28946C11.3029 2.28946 11.7863 2.7641 11.7822 3.35043C11.7822 3.93276 11.2988 4.40342 10.7057 4.39943C10.1127 4.39943 9.63331 3.92479 9.63331 3.34644Z" fill="#414141"/>
</svg>
