<svg width="82" height="82" viewBox="0 0 82 82" fill="none" xmlns="http://www.w3.org/2000/svg">
<path d="M80.6774 74.0645H79.3548V30.4194C79.3548 29.6893 78.7636 29.0968 78.0323 29.0968H52.7564C52.8437 28.2199 52.9032 27.3364 52.9032 26.4516C52.9032 11.8662 41.037 0 26.4516 0C11.8662 0 0 11.8662 0 26.4516C0 38.2728 7.79661 48.3046 18.5161 51.6838V55.5484C18.5161 62.8411 24.4492 68.7742 31.7419 68.7742H42.3226V70.0968C42.3226 70.8282 42.9138 71.4194 43.6452 71.4194H47.6129V74.0645H46.2903C45.5589 74.0645 44.9677 74.6557 44.9677 75.3871V80.6774C44.9677 81.4088 45.5589 82 46.2903 82H80.6774C81.4088 82 82 81.4088 82 80.6774V75.3871C82 74.6557 81.4088 74.0645 80.6774 74.0645ZM10.6058 44.1676L14.1609 40.6125L12.2907 38.7424L8.73565 42.2975C5.23874 38.3932 3.02077 33.3409 2.71261 27.7742H7.93548V25.129H2.71261C3.02077 19.5623 5.23874 14.51 8.73565 10.6058L12.2907 14.1609L14.1609 12.2907L10.6058 8.73565C14.51 5.23874 19.5636 3.02077 25.129 2.71261V7.93548H27.7742V2.71261C33.3396 3.02077 38.3932 5.23874 42.2975 8.73565L38.7424 12.2907L40.6125 14.1609L44.1676 10.6058C47.6645 14.5114 49.8825 19.5636 50.1906 25.129H44.9677V27.7742H50.2065C50.1827 28.2186 50.1443 28.6577 50.0954 29.0968H48.9355C48.2041 29.0968 47.6129 29.6893 47.6129 30.4194V37.347C46.6699 39.1748 45.5245 40.8466 44.202 42.3318L40.6125 38.7424L38.7424 40.6125L42.3305 44.2006C38.3667 47.7584 33.2788 49.9129 27.7742 50.2118V44.9677H25.129V50.1906C23.7734 50.1152 22.4482 49.938 21.1613 49.6444V41.3968C22.8185 41.9853 24.5947 42.3226 26.4516 42.3226C35.2031 42.3226 42.3226 35.2031 42.3226 26.4516C42.3226 17.7001 35.2031 10.5806 26.4516 10.5806C17.7001 10.5806 10.5806 17.7001 10.5806 26.4516C10.5806 32.3106 13.78 37.4264 18.5161 40.1747V48.868C15.5681 47.8219 12.8912 46.2149 10.6058 44.1676ZM26.4516 23.8065C27.9104 23.8065 29.0968 24.9928 29.0968 26.4516C29.0968 27.9104 27.9104 29.0968 26.4516 29.0968C24.9928 29.0968 23.8065 27.9104 23.8065 26.4516C23.8065 24.9928 24.9928 23.8065 26.4516 23.8065ZM29.9432 39.1947C28.8283 39.5002 27.6618 39.6774 26.4516 39.6774C25.2415 39.6774 24.0749 39.5002 22.96 39.1947L26.4516 33.0857L29.9432 39.1947ZM32.4376 38.2292L28.495 31.3293C28.7159 31.2367 28.9182 31.1124 29.1219 30.992L34.8156 36.6857C34.0855 37.2835 33.2854 37.7967 32.4376 38.2292ZM36.6857 34.8156L30.992 29.1219C31.1124 28.9182 31.2367 28.7159 31.3293 28.495L38.2292 32.4376C37.7967 33.2854 37.2835 34.0855 36.6857 34.8156ZM39.6774 26.4516C39.6774 27.6618 39.5002 28.8283 39.1947 29.9432L33.0857 26.4516L39.1947 22.96C39.5002 24.0749 39.6774 25.2415 39.6774 26.4516ZM31.3293 24.4082C31.2367 24.1874 31.1124 23.985 30.992 23.7813L36.6857 18.0876C37.2835 18.8177 37.7967 19.6178 38.2292 20.4656L31.3293 24.4082ZM29.1219 21.9112C28.9182 21.7908 28.7159 21.6665 28.495 21.5739L32.4376 14.674C33.2854 15.1065 34.0855 15.6197 34.8156 16.2175L29.1219 21.9112ZM26.4516 19.8175L22.96 13.7085C24.0749 13.403 25.2415 13.2258 26.4516 13.2258C27.6618 13.2258 28.8283 13.403 29.9432 13.7085L26.4516 19.8175ZM20.4656 14.674L24.4082 21.5739C24.1874 21.6665 23.985 21.7908 23.7813 21.9112L18.0876 16.2175C18.8177 15.6197 19.6178 15.1065 20.4656 14.674ZM16.2175 18.0876L21.9112 23.7813C21.7908 23.985 21.6665 24.1874 21.5739 24.4082L14.674 20.4656C15.1065 19.6178 15.6197 18.8177 16.2175 18.0876ZM13.2258 26.4516C13.2258 25.2415 13.403 24.0749 13.7085 22.96L19.8175 26.4516L13.7085 29.9432C13.403 28.8283 13.2258 27.6618 13.2258 26.4516ZM21.5739 28.495C21.6665 28.7159 21.7908 28.9182 21.9112 29.1219L16.2175 34.8156C15.6197 34.0855 15.1065 33.2854 14.674 32.4376L21.5739 28.495ZM23.7813 30.992C23.985 31.1124 24.1874 31.2367 24.4082 31.3293L20.4656 38.2292C19.6178 37.7967 18.8177 37.2835 18.0876 36.6857L23.7813 30.992ZM42.3226 64.8064V66.129H31.7419C25.908 66.129 21.1613 61.3823 21.1613 55.5484V52.3702C22.8714 52.7181 24.6397 52.9032 26.4516 52.9032C34.9373 52.9032 42.6757 48.9381 47.6129 42.3173V63.4839H43.6452C42.9138 63.4839 42.3226 64.0751 42.3226 64.8064ZM44.9677 68.7742V66.129H47.6129V68.7742H44.9677ZM50.2581 31.7419H76.7097V74.0645H50.2581V31.7419ZM79.3548 79.3548H47.6129V76.7097H79.3548V79.3548Z" fill="white"/>
<path d="M63.4839 34.3871C57.65 34.3871 52.9032 39.1338 52.9032 44.9677V46.2903C52.9032 47.0217 53.4944 47.6129 54.2258 47.6129H72.7419C73.4733 47.6129 74.0645 47.0217 74.0645 46.2903V44.9677C74.0645 39.1338 69.3178 34.3871 63.4839 34.3871ZM64.0314 44.9677L59.1286 40.0649L57.2585 41.9351L60.2912 44.9677H55.5484C55.5484 40.5913 59.1075 37.0323 63.4839 37.0323C67.8603 37.0323 71.4194 40.5913 71.4194 44.9677H64.0314Z" fill="white"/>
<path d="M59.5161 50.2581H54.2258C53.4944 50.2581 52.9032 50.8493 52.9032 51.5806V56.871C52.9032 57.6024 53.4944 58.1936 54.2258 58.1936H59.5161C60.2475 58.1936 60.8387 57.6024 60.8387 56.871V51.5806C60.8387 50.8493 60.2475 50.2581 59.5161 50.2581ZM58.1936 55.5484H55.5484V52.9032H58.1936V55.5484Z" fill="white"/>
<path d="M59.5161 60.8387H54.2258C53.4944 60.8387 52.9032 61.4299 52.9032 62.1613V67.4516C52.9032 68.183 53.4944 68.7742 54.2258 68.7742H59.5161C60.2475 68.7742 60.8387 68.183 60.8387 67.4516V62.1613C60.8387 61.4299 60.2475 60.8387 59.5161 60.8387ZM58.1936 66.129H55.5484V63.4839H58.1936V66.129Z" fill="white"/>
<path d="M71.4194 50.2581H68.7742V52.9032H66.129V55.5484H68.7742V58.1936H71.4194V55.5484H74.0645V52.9032H71.4194V50.2581Z" fill="white"/>
<path d="M66.129 63.4839H74.0645V66.129H66.129V63.4839Z" fill="white"/>
</svg>
