<?xml version="1.0" encoding="utf-8"?>
<!-- Generator: Adobe Illustrator 24.3.0, SVG Export Plug-In . SVG Version: 6.00 Build 0)  -->
<svg version="1.1" id="Layer_1" xmlns="http://www.w3.org/2000/svg" xmlns:xlink="http://www.w3.org/1999/xlink" x="0px" y="0px"
	 viewBox="0 0 100 80" style="enable-background:new 0 0 100 80;" xml:space="preserve">
<style type="text/css">
	.st0{fill-rule:evenodd;clip-rule:evenodd;fill:#337767;}
	.st1{fill-rule:evenodd;clip-rule:evenodd;fill:#FFFFFF;}
</style>
<g>
	<path class="st0" d="M42,8.2c0-2.2-2-3.6-4.9-3.6h-6.9l-3.7,11.5h4.8l1.1-3l1-0.1l1.7,3.1H40l-2-3.9C38,12.2,42,10.5,42,8.2z
		 M36.1,9.8h-2.6l1-2.7l2.3,0C39,7.2,38.4,9.8,36.1,9.8z"/>
	<polygon class="st0" points="48.3,11.8 47.6,13.5 54,13.5 53.1,16.1 42.3,16.1 46.3,4.6 57,4.6 56.1,7.6 49.7,7.6 49.1,9.4 
		55.4,9.5 54.5,11.8 	"/>
	<polygon class="st0" points="71.2,4.6 74.8,4.6 74.8,16.1 70.4,16.1 70.4,10.4 66.1,16.1 61.7,16.1 61.7,10.6 58.5,16.1 54.7,16.1 
		62.5,4.6 66.1,4.6 66.2,11.4 	"/>
	<path class="st0" d="M89.1,4.6h-5.2l-7.7,11.5h3.6l1.8-2.6H86l0.4,2.6h4.4L89.1,4.6z M83.2,11.1l1.9-3l0.5,3L83.2,11.1z"/>
	<path class="st0" d="M19.1,47L19.1,47l57.3,0v0H19.1z"/>
	<polygon class="st1" points="100,0 99.6,1.2 84.6,47 82.6,47 97.4,1.9 28,1.9 22,19.7 20.1,19.7 26.4,0.6 26.6,0 	"/>
	<path class="st1" d="M19.1,47L19.1,47l57.3,0v0H19.1z"/>
	<path class="st1" d="M11.2,19.7L2.3,47h16.8v0h57.3l8.8-27.3H11.2z M29.2,24.2l-0.6,0l-6.1,19.1h-8.4l1.9-5.9l4.3-13.2l-0.6,0
		l-0.4,0.4l-1.4,1.2l-6.5,5.6l2.6-7.8h22.2l-2.6,8L29.2,24.2z M43.3,43.3h-8.7l6.4-19.8h8.6L43.3,43.3z M60.6,43.3h-8.2l6.4-19.8
		l8.3,0L60.6,43.3z M68.4,35.1h-1.1l0.8-2.4l2.4-6.8l0.9-2.5h1.4C79.2,23.4,78.5,35.1,68.4,35.1z"/>
	<path class="st1" d="M42,8.2c0-2.2-2-3.6-4.9-3.6h-6.9l-3.7,11.5h4.8l1.1-3l1-0.1l1.7,3.1H40l-2-3.9C38,12.2,42,10.5,42,8.2z
		 M36.1,9.8h-2.6l1-2.7l2.3,0C39,7.2,38.4,9.8,36.1,9.8z M56.1,7.6l0.9-3H46.3l-3.9,11.5h10.8l0.9-2.6h-6.3l0.6-1.8h6.2l0.9-2.3
		l-6.3,0l0.5-1.8H56.1z M71.2,4.6l-5,6.8l-0.1-6.8h-3.6l-7.8,11.5h3.8l3.2-5.5v5.5h4.4l4.3-5.7l0,5.7h4.4V4.6H71.2z M89.1,4.6h-5.2
		l-7.7,11.5h3.6l1.8-2.6H86l0.4,2.6h4.4L89.1,4.6z M83.2,11.1l1.9-3l0.5,3L83.2,11.1z"/>
	<path class="st1" d="M19.1,47L19.1,47l57.3,0v0H19.1z"/>
	<path class="st1" d="M76.4,47L76.4,47l-57.3,0l-8.9,27.2h63.5l-1.3,4H2.6L13,47h-2L0.4,78.8L0,80h73.7l0.2-0.6l1.7-5.2H85L94,47
		H76.4z M36.8,50.3h-0.5l-6.4,19.5h-8.3l6.2-19.4l-0.8,0l-8.2,7.5l2.8-8.1h22.5l-2.8,8.1L36.8,50.3z M54,49.5l-7.1,20.4
		C37,68.5,43.3,49,54,49.5z M51.3,69.9l6.9-20.2C71.3,51.2,60.8,70.2,51.3,69.9z M72.7,69.8h-8.6l6.5-20h8.6L72.7,69.8z M79.8,61.6
		c-0.1,0-0.2,0-0.3,0l-0.7,0l-0.2,0l3.9-11.7h1.4C90.2,49.8,89.5,61.7,79.8,61.6z"/>
</g>
</svg>
