<svg width="14" height="14" viewBox="0 0 14 14" fill="none" xmlns="http://www.w3.org/2000/svg">
<path d="M0 6.9961C0 5.30557 0 3.61699 0 1.92646C0.00195024 0.961281 0.64748 0.194986 1.59725 0.0272981C1.69866 0.0097493 1.80397 0.00194986 1.90734 0.00194986C5.29686 0 8.68832 0 12.0778 0C13.1407 0 13.993 0.84039 13.9949 1.90111C14.0008 5.30557 14.0008 8.71198 13.9988 12.1164C13.9988 13.0699 13.2831 13.8635 12.3294 13.9844C12.2612 13.9922 12.1929 14 12.1266 14C8.72343 14 5.32221 14 1.91904 13.9961C0.992673 13.9942 0.224278 13.3643 0.0390048 12.4616C0.0117014 12.329 0.00390048 12.1905 0.00390048 12.054C0 10.3694 0 8.68273 0 6.9961ZM6.98381 9.70446C7.01307 9.72591 7.03062 9.7376 7.05012 9.75125C7.83607 10.3323 8.62007 10.9173 9.41187 11.4905C9.52498 11.5724 9.67125 11.6231 9.80971 11.6582C9.98719 11.7031 10.1432 11.6329 10.2368 11.4769C10.3012 11.3716 10.3499 11.2487 10.3772 11.1279C10.4455 10.8432 10.4962 10.5565 10.5547 10.2699C11.0013 8.05877 11.4499 5.84763 11.8945 3.63649C11.9355 3.4376 11.9745 3.23287 11.9764 3.03203C11.9803 2.7649 11.7931 2.61476 11.5279 2.64596C11.4304 2.65766 11.3329 2.69276 11.2392 2.72785C8.30803 3.83733 5.37877 4.9468 2.44755 6.05627C2.18427 6.15571 1.91904 6.2532 1.6538 6.35265C1.51534 6.40529 1.40027 6.48524 1.33982 6.62563C1.2501 6.83621 1.36517 7.05265 1.6109 7.13064C2.37149 7.37047 3.13404 7.60836 3.89658 7.84429C3.96679 7.86574 4.0019 7.90084 4.02335 7.97103C4.30808 8.85432 4.59477 9.73565 4.88535 10.617C4.92436 10.734 4.97507 10.8471 5.03162 10.9543C5.08818 11.0635 5.18569 11.1103 5.31246 11.1123C5.43922 11.1142 5.54259 11.0674 5.63035 10.9875C5.86048 10.7769 6.08865 10.5663 6.31488 10.3499C6.54111 10.1412 6.75954 9.92284 6.98381 9.70446Z" fill="#414141"/>
<path d="M5.29491 10.4903C5.11743 9.94819 4.93996 9.40613 4.76444 8.86212C4.64743 8.5053 4.53236 8.14652 4.4134 7.7897C4.39194 7.7273 4.3978 7.69415 4.45825 7.65711C6.25443 6.53204 8.0506 5.40502 9.84677 4.27995C9.88382 4.25655 9.92673 4.2312 9.96964 4.22535C10.0106 4.2195 10.0691 4.22535 10.0905 4.2507C10.114 4.27605 10.1159 4.33844 10.1042 4.37549C10.0886 4.41839 10.0515 4.45739 10.0164 4.48858C8.71758 5.65655 7.41872 6.82647 6.11791 7.99443C5.94824 8.14652 5.77662 8.29666 5.6128 8.45265C5.57379 8.4897 5.54064 8.54624 5.53479 8.59889C5.47043 9.13315 5.40997 9.66936 5.34951 10.2056C5.33781 10.3011 5.32611 10.3986 5.31441 10.4942C5.30856 10.4922 5.30271 10.4903 5.29491 10.4903Z" fill="#414141"/>
</svg>
