<svg width="42" height="42" viewBox="0 0 42 42" fill="none" xmlns="http://www.w3.org/2000/svg">
<path d="M21 0C9.40358 0 0 9.40358 0 21C0 32.5964 9.40358 42 21 42C32.5964 42 42 32.5964 42 21C42 9.40358 32.5964 0 21 0ZM34.026 15.3271L18.9154 30.4378L18.6989 30.6542C17.9699 31.3832 16.808 31.4345 16.022 30.808C15.9593 30.7567 15.9024 30.7055 15.8511 30.6542L9.1131 23.9162C8.3271 23.1302 8.3271 21.8544 9.1131 21.0683C9.50041 20.6753 10.0244 20.4817 10.537 20.4817C11.0496 20.4817 11.5679 20.6753 11.9552 21.0683L17.275 26.3824L31.1782 12.4793C31.9585 11.6989 33.2457 11.6989 34.026 12.4793C34.4133 12.8666 34.6184 13.3906 34.6184 13.9089C34.6184 14.4215 34.4133 14.9341 34.026 15.3271Z" fill="white"/>
</svg>
