<svg width="90" height="88" viewBox="0 0 90 88" fill="none" xmlns="http://www.w3.org/2000/svg">
<path d="M59.5153 0C42.6753 0 29.0225 13.6115 29.0225 30.4007C29.0225 47.1818 42.6753 60.7933 59.5153 60.7933C76.3472 60.7933 90 47.1818 90 30.4007C90 13.6115 76.3472 0 59.5153 0ZM59.5071 59.6058C43.3324 59.6058 30.2136 46.5266 30.2136 30.3926C30.2136 14.2667 43.3324 1.18753 59.5071 1.18753C75.69 1.18753 88.8089 14.2667 88.8089 30.3926C88.8089 46.5266 75.69 59.6058 59.5071 59.6058Z" fill="white"/>
<path d="M59.5153 0C42.6753 0 29.0225 13.6115 29.0225 30.4007C29.0225 47.1818 42.6753 60.7933 59.5153 60.7933C76.3472 60.7933 90 47.1818 90 30.4007C90 13.6115 76.3472 0 59.5153 0ZM59.5071 59.6058C43.3324 59.6058 30.2136 46.5266 30.2136 30.3926C30.2136 14.2667 43.3324 1.18753 59.5071 1.18753C75.69 1.18753 88.8089 14.2667 88.8089 30.3926C88.8089 46.5266 75.69 59.6058 59.5071 59.6058Z" fill="white"/>
<path d="M59.5072 2.00653C43.7843 2.00653 31.0352 14.7172 31.0352 30.3926C31.0352 46.0761 43.7843 58.7868 59.5072 58.7868C75.2383 58.7868 87.9875 46.0761 87.9875 30.3926C87.9875 14.7172 75.2383 2.00653 59.5072 2.00653ZM59.5072 49.9909C48.6556 49.9909 39.8577 41.2196 39.8577 30.3926C39.8577 19.5738 48.6556 10.8024 59.5072 10.8024C70.367 10.8024 79.1649 19.5738 79.1649 30.3926C79.1649 41.2196 70.367 49.9909 59.5072 49.9909Z" fill="white"/>
<path d="M0 65.9775V88H16.4294V65.9775H0ZM14.351 85.2073H2.08653V68.7702H14.351V85.2073Z" fill="white"/>
<path d="M0 57.1488V65.1585H8.03395V57.1488H0Z" fill="white"/>
<path d="M17.8916 75.5842L31.5444 61.9727H87.9874V68.0168H32.4644L17.9573 82.4801L17.8916 75.5842Z" fill="white"/>
<path d="M52.541 69.4336V83.3318H66.4813V69.4336H52.541ZM63.0065 79.8675H56.0158V72.8897H63.0065V79.8675Z" fill="white"/>
<path d="M87.9874 86.8452H17.8916V88H87.9874V86.8452Z" fill="white"/>
<path d="M87.9874 84.765H17.8916V85.5267H87.9874V84.765Z" fill="white"/>
</svg>
