<svg width="95" height="93" viewBox="0 0 95 93" fill="none" xmlns="http://www.w3.org/2000/svg">
<path d="M75.6818 48.8522C65.5641 48.8522 57.3555 57.1091 57.3555 67.2863C57.3555 77.4635 65.5641 85.7203 75.6818 85.7203C85.7996 85.7203 94.0081 77.4635 94.0081 67.2863C94.0001 57.1091 85.7915 48.8522 75.6818 48.8522ZM75.6738 84.9991C65.9507 84.9991 58.0644 77.0664 58.0644 67.2863C58.0644 57.5061 65.9507 49.5734 75.6738 49.5734C85.3968 49.5734 93.2831 57.5061 93.2831 67.2863C93.2831 77.0664 85.3968 84.9991 75.6738 84.9991Z" fill="white"/>
<path d="M75.6818 48.8522C65.5641 48.8522 57.3555 57.1091 57.3555 67.2863C57.3555 77.4635 65.5641 85.7203 75.6818 85.7203C85.7996 85.7203 94.0081 77.4635 94.0081 67.2863C94.0001 57.1091 85.7915 48.8522 75.6818 48.8522ZM75.6738 84.9991C65.9507 84.9991 58.0644 77.0664 58.0644 67.2863C58.0644 57.5061 65.9507 49.5734 75.6738 49.5734C85.3968 49.5734 93.2831 57.5061 93.2831 67.2863C93.2831 77.0664 85.3968 84.9991 75.6738 84.9991Z" fill="white"/>
<path d="M75.6737 50.0676C66.2245 50.0676 58.5637 57.7735 58.5637 67.2781C58.5637 76.7909 66.2245 84.4967 75.6737 84.4967C85.1309 84.4967 92.7917 76.7909 92.7917 67.2781C92.7917 57.7735 85.1309 50.0676 75.6737 50.0676ZM75.6737 79.165C69.1487 79.165 63.8643 73.8414 63.8643 67.2781C63.8643 60.7148 69.1568 55.3993 75.6737 55.3993C82.1987 55.3993 87.4911 60.7229 87.4911 67.2781C87.4911 73.8496 82.1987 79.165 75.6737 79.165Z" fill="white"/>
<path d="M50.1295 0C38.8276 0 29.6685 9.21296 29.6685 20.5813C29.6685 31.9415 38.8276 41.1545 50.1295 41.1545C61.4234 41.1545 70.5825 31.9415 70.5825 20.5813C70.5825 9.21296 61.4234 0 50.1295 0ZM50.1214 40.3442C39.2706 40.3442 30.466 31.4878 30.466 20.5732C30.466 9.65862 39.2706 0.802184 50.1214 0.802184C60.9803 0.802184 69.7769 9.65862 69.7769 20.5732C69.785 31.4959 60.9803 40.3442 50.1214 40.3442Z" fill="white"/>
<path d="M50.1295 0C38.8276 0 29.6685 9.21296 29.6685 20.5813C29.6685 31.9415 38.8276 41.1545 50.1295 41.1545C61.4234 41.1545 70.5825 31.9415 70.5825 20.5813C70.5825 9.21296 61.4234 0 50.1295 0ZM50.1214 40.3442C39.2706 40.3442 30.466 31.4878 30.466 20.5732C30.466 9.65862 39.2706 0.802184 50.1214 0.802184C60.9803 0.802184 69.7769 9.65862 69.7769 20.5732C69.785 31.4959 60.9803 40.3442 50.1214 40.3442Z" fill="white"/>
<path d="M50.1297 1.36127C39.5769 1.36127 31.022 9.96652 31.022 20.5813C31.022 31.1879 39.5769 39.7932 50.1297 39.7932C60.6744 39.7932 69.2294 31.1879 69.2294 20.5813C69.2294 9.96652 60.6744 1.36127 50.1297 1.36127ZM50.1216 39.0396C39.9878 39.0396 31.7631 30.7666 31.7631 20.5732C31.7631 10.3798 39.9878 2.10673 50.1216 2.10673C60.2636 2.10673 68.4802 10.3798 68.4802 20.5732C68.4883 30.7747 60.2636 39.0396 50.1216 39.0396Z" fill="white"/>
<path d="M50.1296 2.836C40.3905 2.836 32.488 10.7768 32.488 20.5813C32.488 30.3777 40.3825 38.3185 50.1296 38.3185C59.8688 38.3185 67.7632 30.3777 67.7632 20.5813C67.7632 10.7768 59.8607 2.836 50.1296 2.836ZM50.1216 37.6216C40.7691 37.6216 33.1808 29.9887 33.1808 20.5732C33.1808 11.1657 40.7691 3.53285 50.1216 3.53285C59.4821 3.53285 67.0704 11.1657 67.0704 20.5732C67.0704 29.9887 59.4821 37.6216 50.1216 37.6216Z" fill="white"/>
<path d="M50.1296 4.31073C41.2041 4.31073 33.9622 11.5952 33.9622 20.5732C33.9622 29.5512 41.2041 36.8357 50.1296 36.8357C59.0551 36.8357 66.2971 29.5512 66.2971 20.5732C66.289 11.5952 59.0551 4.31073 50.1296 4.31073ZM50.1216 35.1746C42.1063 35.1746 35.6135 28.6356 35.6135 20.5732C35.6135 12.5108 42.1144 5.97992 50.1216 5.97992C58.1368 5.97992 64.6376 12.5189 64.6376 20.5732C64.6376 28.6356 58.1368 35.1746 50.1216 35.1746Z" fill="white"/>
<path d="M19.446 43.1153C6.17051 45.9676 -2.2878 59.1023 0.547744 72.4558C3.38329 85.8013 16.4413 94.3093 29.7088 91.4571C42.9762 88.6049 51.4345 75.4701 48.599 62.1328C45.7635 48.7793 32.7054 40.2631 19.446 43.1153ZM29.4993 90.509C16.7474 93.2478 4.20496 85.072 1.48219 72.2452C-1.24058 59.4264 6.88745 46.8103 19.6394 44.0715C32.3913 41.3246 44.9418 49.5004 47.6646 62.3192C50.3873 75.146 42.2593 87.7703 29.4993 90.509Z" fill="white"/>
<path d="M19.446 43.1153C6.17051 45.9676 -2.2878 59.1023 0.547744 72.4558C3.38329 85.8013 16.4413 94.3093 29.7088 91.4571C42.9762 88.6049 51.4345 75.4701 48.599 62.1328C45.7635 48.7793 32.7054 40.2631 19.446 43.1153ZM29.4993 90.509C16.7474 93.2478 4.20496 85.072 1.48219 72.2452C-1.24058 59.4264 6.88745 46.8103 19.6394 44.0715C32.3913 41.3246 44.9418 49.5004 47.6646 62.3192C50.3873 75.146 42.2593 87.7703 29.4993 90.509Z" fill="white"/>
<path d="M19.7763 44.7198C7.38685 47.3775 -0.515625 59.6453 2.12659 72.1075C4.77686 84.5778 16.9729 92.5267 29.3623 89.8609C41.7598 87.195 49.6623 74.9273 47.012 62.457C44.3698 50.0028 32.1737 42.0539 19.7763 44.7198ZM14.4757 50.6106C14.2904 50.2864 14.4113 49.8813 14.7335 49.703C15.0557 49.5248 15.4585 49.6382 15.6357 49.9542C15.8129 50.2783 15.7002 50.6835 15.3779 50.8618C15.0557 51.0481 14.6529 50.9347 14.4757 50.6106ZM12.1718 52.2068C11.9543 51.9151 12.0027 51.4938 12.2927 51.275C12.5827 51.0481 13.0016 51.1048 13.2191 51.3965C13.4446 51.6882 13.3882 52.1096 13.0982 52.3365C12.8082 52.5471 12.3974 52.4985 12.1718 52.2068ZM10.1257 54.1272C9.86795 53.8679 9.8599 53.4466 10.1177 53.1873C10.3755 52.9199 10.7943 52.9199 11.0521 53.1792C11.3099 53.4385 11.318 53.8517 11.0602 54.1191C10.8024 54.3784 10.3835 54.3784 10.1257 54.1272ZM8.22463 55.3832C8.44213 55.0833 8.85296 55.0185 9.15101 55.2373C9.44907 55.4561 9.51351 55.8693 9.29601 56.1691C9.07851 56.4689 8.66768 56.5338 8.36963 56.315C8.07963 56.0962 8.00713 55.683 8.22463 55.3832ZM6.66991 57.8464C6.83908 57.5142 7.2338 57.3846 7.56407 57.5628C7.88629 57.733 8.01518 58.1381 7.83796 58.4704C7.66879 58.7945 7.26602 58.9241 6.9438 58.754C6.62158 58.5676 6.50074 58.1705 6.66991 57.8464ZM34.687 84.3104C34.8723 84.6345 34.7515 85.0397 34.4293 85.2179C34.1071 85.3962 33.7123 85.2746 33.5351 84.9586C33.3579 84.6345 33.4707 84.2294 33.7848 84.0511C34.107 83.881 34.5098 83.9944 34.687 84.3104ZM37.007 82.625C37.2326 82.9167 37.1762 83.3381 36.8782 83.5649C36.5962 83.7837 36.1773 83.7351 35.9518 83.4434C35.7262 83.1517 35.7826 82.7303 36.0726 82.5116C36.3626 82.2766 36.7815 82.3333 37.007 82.625ZM39.0612 80.6236C39.319 80.8829 39.327 81.3042 39.0693 81.5635C38.8115 81.8228 38.4007 81.8309 38.1348 81.5716C37.877 81.3123 37.869 80.891 38.1268 80.6317C38.3765 80.3724 38.7954 80.3643 39.0612 80.6236ZM40.9462 79.2785C40.7368 79.5702 40.3179 79.635 40.0198 79.4244C39.7218 79.2056 39.6573 78.7924 39.8668 78.4925C40.0762 78.1927 40.5031 78.1279 40.7931 78.3386C41.0993 78.5655 41.1637 78.9787 40.9462 79.2785ZM42.4767 76.7342C42.3076 77.0583 41.9048 77.188 41.5826 77.0178C41.2604 76.8477 41.1315 76.4425 41.3006 76.1184C41.4698 75.7862 41.8726 75.6646 42.1948 75.8348C42.517 76.005 42.6459 76.402 42.4767 76.7342ZM27.8801 82.8681C19.3251 84.7074 10.9152 79.2218 9.08657 70.6084C7.25796 62.0113 12.7116 53.5438 21.2665 51.7045C29.8296 49.8651 38.2395 55.3588 40.0681 63.9479C41.8887 72.5612 36.4351 81.0287 27.8801 82.8681Z" fill="white"/>
</svg>
