<svg width="92" height="87" viewBox="0 0 92 87" fill="none" xmlns="http://www.w3.org/2000/svg">
<path d="M27.0791 23.4598C9.95376 39.4048 0.88436 60.5752 0.00405164 82.0435C-0.106912 84.7398 2.07537 87 4.82726 87H22.1671C24.7489 87 26.8498 85.0087 26.9755 82.4723C27.7005 68.4896 33.4632 54.7321 44.197 44.0706L50.7956 50.9166C50.9584 51.0838 51.2247 51.091 51.3948 50.9312L52.2973 50.0954L55.1306 54.1434C55.3007 54.3178 55.5819 54.3251 55.7594 54.1579L57.5052 52.53C57.6828 52.3701 57.6902 52.094 57.52 51.9123L53.5549 48.918L54.4574 48.0823C54.6276 47.9224 54.635 47.6608 54.4722 47.4936L47.8958 40.6839C59.1919 31.1562 73.1658 26.4541 87.1102 26.4904C89.8029 26.4977 92 24.3973 92 21.7592V4.73862C92 2.11504 89.8251 0.000182361 87.1546 0.000182361C65.5833 -0.0434229 43.9677 7.73285 27.0791 23.4598ZM26.1914 53.5911L20.8134 64.2162C19.615 66.5782 16.7003 67.5375 14.2961 66.3674C11.8993 65.1974 10.9154 62.3267 12.1138 59.972L17.4919 49.3396C18.6903 46.9776 21.6049 46.0183 24.0091 47.1884C25.7105 48.0241 26.7018 49.7102 26.7018 51.469C26.7018 52.1812 26.5391 52.9079 26.1914 53.5911ZM67.884 17.6603C67.122 18.9612 65.428 19.4118 64.0964 18.656L58.134 15.2766C56.8024 14.5207 56.3512 12.8565 57.1205 11.5556C57.631 10.6835 58.5631 10.1966 59.5174 10.1966C59.9908 10.1966 60.4642 10.3128 60.9007 10.5599L66.8705 13.9466C68.1947 14.6952 68.6459 16.3594 67.884 17.6603Z" fill="white"/>
</svg>
