<svg width="83" height="84" viewBox="0 0 83 84" fill="none" xmlns="http://www.w3.org/2000/svg">
<path d="M53.7309 54.0631C53.7309 47.7541 53.7211 41.4427 53.7456 35.1338C53.748 34.5192 53.5625 34.151 53.0525 33.7973C41.424 25.7057 42.5295 8.10788 55.0731 1.46969C57.3256 0.277159 59.5756 1.60626 59.5854 4.1596C59.6025 8.02984 59.6049 11.9025 59.5732 15.7728C59.5683 16.3946 59.7221 16.7605 60.3346 16.8897C60.3639 16.897 60.3932 16.9092 60.42 16.9214C61.6109 17.3799 62.8043 18.1993 63.9927 18.1993C65.1836 18.1993 66.3623 17.3457 67.5703 16.9287C68.1829 16.7166 68.3927 16.4068 68.3879 15.7435C68.3537 11.9635 68.3708 8.18348 68.3757 4.40347C68.3805 1.4892 70.594 0.19912 73.1588 1.61114C85.4486 8.38102 86.4296 25.6935 74.9623 33.7632C74.379 34.1729 74.2179 34.5924 74.2204 35.2581C74.2375 47.6639 74.2423 60.0696 74.2277 72.4778C74.2228 77.5601 70.9332 81.7133 66.1476 82.7497C59.9075 84.1032 53.8798 79.3843 53.748 72.9924C53.6821 69.8245 53.7285 66.6517 53.726 63.4814C53.7236 60.3428 53.726 57.2017 53.726 54.0631C53.7285 54.0631 53.7309 54.0631 53.7309 54.0631ZM53.7309 10.0589C53.4015 10.471 53.2038 10.688 53.0427 10.927C48.7696 17.258 50.8098 25.9642 57.4915 29.6832C58.968 30.5051 59.6147 31.583 59.6098 33.2779C59.5732 45.9324 59.5903 58.5845 59.5903 71.239C59.5903 71.8194 59.5732 72.3998 59.6074 72.9778C59.7391 75.3458 61.7403 77.1773 64.1099 77.1187C66.56 77.0578 68.3757 75.0897 68.3757 72.4559C68.3805 59.4356 68.3952 46.4177 68.3513 33.3974C68.3464 31.6366 68.9809 30.5221 70.5256 29.6491C77.1537 25.8983 79.1768 17.3189 74.9867 11.0343C74.8036 10.7612 74.5913 10.5076 74.235 10.0393C74.235 13.0317 74.235 15.7142 74.235 18.3968C74.235 19.7967 73.6005 20.7941 72.3047 21.3233C69.9375 22.289 67.5777 23.2865 65.169 24.1449C64.4808 24.3912 63.5608 24.418 62.8775 24.1742C60.4127 23.2987 57.9943 22.2866 55.5758 21.2818C54.3605 20.777 53.7529 19.804 53.7382 18.4822C53.7285 17.6579 53.7358 16.8361 53.7334 16.0118C53.7309 14.1023 53.7309 12.1976 53.7309 10.0589Z" fill="white"/>
<path d="M45.0675 77.0643C45.2457 76.6326 45.3677 76.218 45.5776 75.8547C46.2316 74.7207 47.5396 74.1963 48.794 74.5207C50.0996 74.8597 50.9781 75.979 50.9928 77.3203C51.0245 80.2053 48.467 82.8587 45.458 82.9513C43.1738 83.0221 40.8823 83.0172 38.5956 82.9538C35.6891 82.8733 33.278 80.5126 33.0437 77.6227C32.929 76.2254 32.7924 74.8304 32.7143 73.4306C32.6874 72.9721 32.541 72.7502 32.1042 72.5795C30.5179 71.96 28.961 71.265 27.3698 70.6626C27.0892 70.5553 26.606 70.6358 26.3693 70.8212C25.315 71.6479 24.3242 72.5551 23.2944 73.416C20.7832 75.5108 17.5278 75.3962 15.185 73.116C13.7208 71.6893 12.2736 70.2481 10.8509 68.7824C8.5813 66.4437 8.48857 63.1758 10.5995 60.6785C11.4658 59.6543 12.3322 58.63 13.2229 57.6277C13.528 57.2838 13.5451 57.018 13.3498 56.5864C12.6665 55.0622 12.0296 53.5136 11.4317 51.9528C11.2511 51.4772 11.0217 51.3065 10.5239 51.2797C9.18408 51.209 7.84919 51.07 6.51186 50.9724C3.41501 50.7456 1.06003 48.2923 1.01855 45.1927C0.989261 43.0588 0.989261 40.9249 1.01855 38.791C1.06247 35.6987 3.42233 33.2405 6.51674 33.0137C7.85407 32.9162 9.18896 32.7698 10.5287 32.704C11.0339 32.6796 11.2535 32.5016 11.4341 32.0309C12.032 30.4701 12.6714 28.924 13.3523 27.3973C13.5475 26.9633 13.528 26.6974 13.2229 26.3536C12.3322 25.3513 11.4585 24.3343 10.5946 23.3076C8.46417 20.7738 8.58863 17.501 10.9119 15.133C12.3224 13.6966 13.7427 12.2724 15.1826 10.8653C17.5131 8.58752 20.793 8.46802 23.292 10.558C24.3218 11.4189 25.3443 12.2871 26.34 13.1845C26.7158 13.5235 27.0087 13.5186 27.4626 13.3162C28.961 12.648 30.4838 12.0285 32.0115 11.4335C32.4556 11.2604 32.6923 11.0872 32.7167 10.5531C32.7777 9.185 32.9315 7.81932 33.0364 6.4512C33.2634 3.45889 35.6964 1.10309 38.6884 1.01774C39.7865 0.986033 40.8847 0.99091 41.9829 1.01286C43.6789 1.047 44.9602 2.34196 44.9406 3.97346C44.9235 5.56838 43.6619 6.81945 42.0024 6.85603C40.9994 6.87798 39.994 6.8609 38.8909 6.8609C38.7811 8.13879 38.6688 9.37034 38.5688 10.6019C38.4907 11.5749 38.4297 12.548 38.3589 13.5186C38.254 14.9355 37.4999 15.9841 36.1357 16.3183C33.239 17.0304 30.5399 18.1717 27.9799 19.6886C26.7744 20.4007 25.5762 20.2056 24.5073 19.3008C22.8112 17.862 21.1225 16.4158 19.485 15.0209C17.9866 16.5133 16.5223 17.9717 15.0264 19.4642C16.3979 21.0689 17.8108 22.7077 19.2067 24.3587C20.3122 25.6683 20.4172 26.8121 19.524 28.2948C18.0988 30.6628 17.0714 33.1869 16.3954 35.8621C15.9903 37.4619 15.0581 38.2179 13.423 38.3448C11.2657 38.513 9.10843 38.6813 6.90964 38.8544C6.90964 40.9322 6.90964 42.9661 6.90964 45.1146C8.26405 45.2293 9.61847 45.3439 10.9704 45.4536C11.8514 45.5243 12.7348 45.578 13.6158 45.656C14.9824 45.778 15.9952 46.5437 16.3247 47.8704C17.0348 50.731 18.1427 53.4136 19.6631 55.9377C20.4001 57.1595 20.2512 58.3691 19.3092 59.4909C17.8792 61.1931 16.4247 62.8734 14.9971 64.5439C16.493 66.0364 17.9548 67.4972 19.4532 68.9897C21.0468 67.6264 22.6648 66.2364 24.2901 64.8585C25.7006 63.6611 26.8183 63.5562 28.3753 64.4976C30.6619 65.8779 33.1023 66.8704 35.6842 67.5435C37.5829 68.0386 38.232 68.8604 38.376 70.8212C38.5273 72.8868 38.7054 74.9499 38.8763 77.0643C40.9604 77.0643 42.9932 77.0643 45.0675 77.0643Z" fill="white"/>
<path d="M41.795 62.484C32.2384 62.5449 23.0406 55.1873 21.6837 44.6472C20.3196 34.0412 27.2063 24.1351 37.8782 21.9135C39.6767 21.5379 40.9189 21.9793 41.6241 23.2206C42.6418 25.0106 41.6388 27.1445 39.5327 27.5542C35.1962 28.398 31.8065 30.6246 29.4954 34.3948C26.3302 39.56 26.7329 46.1909 30.4423 50.9513C34.1785 55.7458 40.4332 57.7431 46.2584 55.9994C46.522 55.9214 46.7758 55.819 47.0418 55.7507C48.6622 55.341 50.1875 56.1701 50.6682 57.7138C51.1417 59.238 50.3339 60.8013 48.7379 61.3475C46.561 62.0938 44.3208 62.5084 41.795 62.484Z" fill="white"/>
</svg>
