<svg width="17" height="14" viewBox="0 0 17 14" fill="none" xmlns="http://www.w3.org/2000/svg">
<path d="M11.6293 0.00321102C11.9313 -0.0101092 12.2347 0.0182556 12.53 0.0837791C12.8066 0.145207 13.0755 0.241036 13.329 0.368677C13.3929 0.400836 13.4559 0.434977 13.5178 0.470972C13.8051 0.6381 14.0641 0.842128 14.2928 1.08504C14.3148 1.10849 14.3349 1.11612 14.3668 1.10918C14.5943 1.05982 14.8197 1.00253 15.042 0.932783C15.5481 0.773932 16.03 0.559342 16.4883 0.290135C16.5023 0.281859 16.5153 0.270435 16.5324 0.267805C16.5336 0.272332 16.5353 0.275306 16.5347 0.277591C16.531 0.291428 16.5272 0.305223 16.5226 0.318759C16.4644 0.493215 16.3925 0.66168 16.3077 0.824626C16.1511 1.1253 15.956 1.39757 15.7222 1.64143C15.5166 1.85593 15.2877 2.04099 15.036 2.19722C15.0294 2.19838 15.0217 2.20105 15.0228 2.20834C15.0243 2.21786 15.032 2.21308 15.0376 2.2114C15.0446 2.2101 15.0515 2.20842 15.0585 2.20756C15.3458 2.17256 15.6292 2.11721 15.9095 2.04526C16.2781 1.95064 16.6365 1.82584 16.9852 1.67238C16.986 1.67807 16.9869 1.6838 16.9877 1.68949C16.8164 1.94913 16.6269 2.19463 16.4226 2.42836C16.0856 2.81391 15.7115 3.15843 15.3004 3.46148C15.2784 3.47764 15.2701 3.49389 15.2712 3.52196C15.2952 4.12055 15.2662 4.71647 15.1819 5.30967C15.141 5.5969 15.089 5.88201 15.0243 6.16458C14.8869 6.76447 14.6996 7.34823 14.4612 7.91484C14.1052 8.76104 13.6504 9.54857 13.09 10.2732C12.658 10.8319 12.1734 11.3388 11.6335 11.7914C11.2623 12.1026 10.8699 12.3833 10.4557 12.6329C9.861 12.9912 9.23436 13.2784 8.57676 13.4968C8.2166 13.6164 7.85078 13.7142 7.47937 13.7904C7.18177 13.8514 6.88199 13.8989 6.58008 13.9327C6.33319 13.9604 6.08578 13.9804 5.83761 13.9911C5.74095 13.9885 5.6445 13.992 5.54814 13.9998C5.40621 13.9998 5.26424 13.9998 5.12232 13.9998C5.04307 13.9902 4.96353 13.9893 4.8839 13.9911C4.84 13.9887 4.79609 13.986 4.75215 13.9837C4.52391 13.9719 4.29652 13.9497 4.06994 13.92C3.80827 13.8858 3.54835 13.8407 3.29005 13.7856C2.61035 13.6405 1.95352 13.4245 1.31887 13.1389C0.868264 12.9361 0.434649 12.7013 0.0192585 12.4321C0.019514 12.4266 0.0197269 12.4211 0.0199824 12.4156C0.162463 12.4317 0.305326 12.4427 0.448488 12.4508C0.841991 12.4732 1.23426 12.4598 1.6258 12.4153C1.94917 12.3785 2.26837 12.3193 2.58318 12.2366C3.51296 11.9925 4.35771 11.5722 5.11866 10.979C5.12819 10.9716 5.14067 10.9664 5.14612 10.947C4.65958 10.9344 4.19628 10.8268 3.75645 10.6196C3.31415 10.4112 2.93129 10.1216 2.60822 9.75174C2.28676 9.38377 2.05103 8.96632 1.89905 8.49179C2.42792 8.5921 2.94428 8.57253 3.45705 8.43299C2.92546 8.31505 2.44381 8.09037 2.01581 7.75107C1.58854 7.41233 1.25581 6.99522 1.02015 6.50035C0.784292 6.00508 0.668851 5.48219 0.675111 4.92312C0.921832 5.06003 1.17328 5.16315 1.43584 5.23863C1.72621 5.32209 2.15276 5.37632 2.24099 5.35476C1.74865 5.01374 1.36324 4.57857 1.09007 4.04347C0.816782 3.50803 0.689205 2.93785 0.703513 2.33594C0.717821 1.7345 0.87512 1.17319 1.17179 0.651205C1.17831 0.654998 1.18137 0.655903 1.18307 0.657929C1.2016 0.679699 1.22016 0.701425 1.2383 0.723539C1.55707 1.11237 1.9034 1.47426 2.27595 1.81041C2.65595 2.15329 3.05967 2.46478 3.48699 2.74481C3.91894 3.0279 4.36963 3.27628 4.83983 3.48799C5.23554 3.66615 5.64105 3.81785 6.05632 3.94251C6.45114 4.06106 6.85197 4.15314 7.25816 4.22112C7.44714 4.25276 7.63697 4.27867 7.82748 4.29862C7.99402 4.31608 8.1609 4.32988 8.32821 4.33841C8.367 4.3404 8.37641 4.35126 8.36368 4.29647C8.32753 4.14094 8.30517 3.98316 8.29291 3.82414C8.26629 3.47975 8.2861 3.138 8.35836 2.79999C8.5174 2.05634 8.87739 1.42908 9.43109 0.916316C9.75714 0.614391 10.1287 0.38536 10.5425 0.227327C10.824 0.11986 11.1204 0.0510174 11.4193 0.018816C11.4892 0.011617 11.5592 0.00631477 11.6293 0.00321102Z" fill="#414141"/>
<path d="M5.83761 13.9911C5.83766 13.994 5.83757 13.9971 5.83762 14C5.74108 14 5.64463 13.9998 5.54814 13.9998C5.6445 13.992 5.74095 13.9885 5.83761 13.9911Z" fill="#414141"/>
<path d="M4.88377 14C4.88377 13.9971 4.8839 13.994 4.8839 13.9911C4.96353 13.9893 5.04307 13.9902 5.12232 13.9998C5.04282 13.9998 4.96323 14 4.88377 14Z" fill="#414141"/>
<path d="M16.9852 1.67238C16.9892 1.66777 16.9965 1.6641 16.9989 1.66971C17.0028 1.67867 16.9958 1.68523 16.9877 1.68949C16.9869 1.6838 16.986 1.67807 16.9852 1.67238Z" fill="#414141"/>
<path d="M0.0192585 12.4321C0.0166184 12.4316 0.0133335 12.4319 0.0113747 12.4305C0.00652032 12.4268 -0.00374201 12.4247 0.00141044 12.4163C0.0051151 12.4102 0.013595 12.412 0.0199824 12.4156C0.0197269 12.4211 0.019514 12.4266 0.0192585 12.4321Z" fill="#414141"/>
<path d="M15.036 2.19722C15.0365 2.20196 15.0371 2.20666 15.0376 2.2114C15.032 2.21308 15.0243 2.21786 15.0228 2.20834C15.0217 2.20105 15.0294 2.19838 15.036 2.19722Z" fill="#414141"/>
</svg>
