<svg width="20" height="14" viewBox="0 0 20 14" fill="none" xmlns="http://www.w3.org/2000/svg">
<path d="M0.00775739 7.00388C0.00775739 7.48139 -0.00810701 7.95968 0.0116745 8.43661C0.0385069 9.08162 0.0925634 9.72564 0.13526 10.3701C0.171885 10.9226 0.270989 11.4622 0.448239 11.9892C0.799606 13.0339 1.53368 13.6107 2.61677 13.7528C3.0265 13.8066 3.44132 13.8287 3.85458 13.8493C4.61 13.8872 5.36601 13.9164 6.12182 13.9431C6.56837 13.9589 7.01532 13.9644 7.46226 13.9714C8.0136 13.9798 8.56494 13.9862 9.11608 13.9911C9.65449 13.996 10.1929 14.0014 10.7311 13.9997C11.2497 13.9981 11.7686 13.9901 12.2872 13.9806C12.8513 13.9702 13.4155 13.9614 13.9794 13.9406C14.8494 13.9084 15.7192 13.8716 16.5884 13.8269C17.0046 13.8055 17.4241 13.7869 17.8272 13.668C18.6876 13.4141 19.256 12.8592 19.5417 12.0105C19.7158 11.4934 19.8206 10.9644 19.8571 10.4211C19.9019 9.75411 19.9654 9.08747 19.9834 8.41965C20.0065 7.55588 20.0016 6.69113 19.992 5.82697C19.9816 4.88832 19.9148 3.95182 19.7952 3.02077C19.7296 2.51051 19.5891 2.01525 19.3525 1.5549C18.9882 0.846133 18.3858 0.44096 17.6165 0.291408C17.2377 0.217704 16.8471 0.192357 16.4603 0.172079C15.5486 0.124308 14.6361 0.0897962 13.7238 0.0554793C13.287 0.0391007 12.8499 0.0320804 12.4129 0.0264259C11.519 0.0149219 10.6252 -0.00145617 9.73146 0.00010369C8.89319 0.00166355 8.05492 0.0219412 7.21666 0.0373449C6.69822 0.046899 6.1796 0.0562589 5.66155 0.0771221C4.86344 0.109294 4.06473 0.137956 3.26819 0.195086C2.89312 0.221994 2.51551 0.284778 2.15121 0.378565C1.31256 0.594215 0.75593 1.12515 0.471742 1.94428C0.292925 2.46001 0.180307 2.98782 0.141919 3.53085C0.0927592 4.22362 0.0402696 4.9164 0.0101077 5.61014C-0.0100656 6.07381 0.00619054 6.53924 0.00619054 7.00388H0.00775739ZM7.93545 4.41646C9.7389 5.34711 11.5277 6.26997 13.3386 7.20452C11.5267 8.14589 9.73733 9.07538 7.93545 10.0115C7.93545 8.1418 7.93545 6.29102 7.93545 4.41646Z" fill="#414141"/>
</svg>
