<svg width="190" height="29" viewBox="0 0 190 29" fill="none" xmlns="http://www.w3.org/2000/svg">
<path d="M56.063 22.9836C54.2802 20.5549 52.5998 18.0492 50.8862 15.5717C50.7684 15.3995 50.6992 15.1939 50.5788 14.9446C50.9733 14.7956 51.2935 14.6773 51.6137 14.554C54.0599 13.6185 55.2997 11.727 55.2331 9.03616C55.1767 6.71544 53.6654 4.66971 51.3447 3.98095C50.315 3.67768 49.2135 3.49264 48.1402 3.46951C44.2698 3.38984 40.3967 3.39755 36.5237 3.37956C36.2804 3.37699 36.0345 3.44638 35.7886 3.48236C36.1113 3.74964 36.4187 3.79076 36.7235 3.82931C38.117 4.00665 38.5678 4.45126 38.7215 5.82878C38.7625 6.17831 38.7599 6.53554 38.7599 6.88763C38.7625 11.8323 38.7651 16.777 38.7574 21.7192C38.7574 22.1998 38.7087 22.6803 38.6626 23.1584C38.5678 24.1401 37.9684 24.6258 37.0412 24.7723C36.6236 24.8366 36.2061 24.888 35.7886 24.9445C35.7962 25.0216 35.8065 25.0962 35.8142 25.1707H46.2883C46.2934 25.0987 46.2985 25.0242 46.3011 24.9522C46.1525 24.9163 46.0065 24.8674 45.8554 24.8469C43.8676 24.5847 43.5192 24.2198 43.4859 22.2075C43.4526 20.1849 43.4962 18.1623 43.4526 16.1397C43.4347 15.3969 43.7523 15.0808 44.4081 15.2504C44.8205 15.3558 45.2867 15.6257 45.5275 15.9649C47.546 18.8176 49.5004 21.7166 51.5266 24.5642C51.7725 24.9111 52.3258 25.2015 52.751 25.2221C54.3801 25.3018 56.0144 25.2658 57.646 25.2606C57.9099 25.2606 58.1737 25.2015 58.3069 25.1861C57.5436 24.4511 56.6727 23.8137 56.063 22.9836ZM49.7514 11.9557C49.2314 12.9991 48.4041 13.6853 47.2616 13.8601C46.2575 14.0143 45.2303 14.0117 44.216 14.0991C43.6063 14.1505 43.4501 13.8524 43.4603 13.2998C43.4808 11.9531 43.4655 10.6064 43.4655 9.25975C43.4655 7.91306 43.4834 6.56638 43.4578 5.21969C43.4475 4.65172 43.655 4.3793 44.2339 4.40757C44.5848 4.42556 44.9358 4.40757 45.2893 4.41271C49.4722 4.47696 51.647 8.15207 49.7514 11.9557Z" fill="white"/>
<path d="M165.686 3.46438C169.09 3.46438 172.495 3.46438 175.899 3.46438C175.912 3.51578 175.924 3.56975 175.937 3.62115C175.786 3.68283 175.64 3.77021 175.481 3.80362C174.003 4.10945 173.573 4.59004 173.563 6.08065C173.545 8.64038 173.558 11.2027 173.558 13.9552C173.947 13.6776 174.206 13.5183 174.436 13.3255C176.78 11.38 179.129 9.44222 181.452 7.47359C181.985 7.02127 182.497 6.51498 182.902 5.94701C183.586 4.98582 183.199 4.13772 182.034 3.89614C181.698 3.82675 181.355 3.78563 181.024 3.51321C183.632 3.51321 186.24 3.51321 188.937 3.51321C184.941 5.19399 182.28 8.50417 178.983 10.9611C178.706 11.1667 178.46 11.4134 178.107 11.7218C178.709 12.5082 179.267 13.2407 179.826 13.9706C181.634 16.3427 183.419 18.7328 185.259 21.0818C186.55 22.7343 187.738 24.5436 190 25.1527C186.427 25.1527 182.853 25.1527 179.221 25.1527C179.306 24.9908 179.321 24.906 179.362 24.8906C181.014 24.2224 181.191 23.8111 180.128 22.3488C178.304 19.8353 176.391 17.3861 174.523 14.9189C173.727 15.1451 173.527 15.618 173.537 16.3144C173.57 18.337 173.545 20.3622 173.555 22.3848C173.565 24.1118 173.898 24.5051 175.579 24.8443C175.714 24.8726 175.842 24.942 175.95 25.1655C172.53 25.1655 169.108 25.1655 165.689 25.1655C165.681 25.0987 165.676 25.0319 165.668 24.9677C165.927 24.9291 166.183 24.8854 166.442 24.8571C167.93 24.6901 168.468 24.135 168.488 22.6058C168.519 20.1977 168.509 17.787 168.509 15.3789C168.509 12.3926 168.514 9.40367 168.499 6.41732C168.488 4.39472 168.089 3.98095 166.05 3.76764C165.927 3.75479 165.809 3.71367 165.689 3.6854C165.689 3.61087 165.689 3.53634 165.686 3.46438Z" fill="white"/>
<path d="M72.4593 3.07887C66.1119 2.76019 61.2476 7.82054 61.2552 14.2661C61.2655 20.9996 65.9249 25.7438 72.5541 25.7489C79.1014 25.7541 83.6507 21.0073 83.7326 14.2481C83.8043 8.52987 79.7648 2.82958 72.4593 3.07887ZM77.1674 21.2771C76.3119 23.2201 75.026 24.6181 72.7206 24.6747C70.8661 24.7209 69.4393 23.9911 68.4582 22.3976C67.4951 20.8299 67.0801 19.0926 66.9034 17.2885C66.6293 14.4615 66.596 11.6344 67.3798 8.88196C67.6719 7.85139 68.1278 6.80796 68.7477 5.94444C70.7816 3.10714 74.8159 3.32303 76.65 6.28882C77.6055 7.83082 77.9589 9.55016 78.1331 11.3158C78.2305 12.3052 78.233 13.3024 78.2817 14.3561C78.21 16.6717 78.1459 19.0515 77.1674 21.2771Z" fill="white"/>
<path d="M88.6764 17.5635C88.8019 17.9772 88.9248 18.3936 89.0503 18.8073C89.7676 21.1923 91.1021 23.0761 93.4075 24.1478C94.6729 24.7364 95.9998 24.8777 97.3369 24.4408C99.8369 23.6287 100.582 20.8505 98.7201 19.0052C97.9184 18.2111 96.8681 17.656 95.8845 17.0674C94.4577 16.2142 92.9336 15.5126 91.5504 14.5951C89.7087 13.3743 88.4817 11.6884 88.392 9.36512C88.2153 4.73653 92.8107 1.66794 97.424 3.33587C98.0234 3.55176 98.5946 3.85502 99.1812 4.10688C100.431 4.64401 100.726 4.51294 101.259 3.22022C101.305 3.10971 101.397 3.01976 101.715 2.94009C101.715 5.30193 101.715 7.6612 101.715 10.023C101.671 10.0462 101.625 10.0693 101.581 10.0924C101.466 9.76861 101.33 9.44736 101.236 9.11583C100.664 7.09837 99.4809 5.56407 97.6315 4.57719C96.3917 3.9167 95.0725 3.74194 93.7251 4.18912C91.4607 4.9447 90.828 7.46331 92.5981 9.04901C93.5817 9.93052 94.824 10.5319 95.9716 11.2181C97.424 12.0893 98.9686 12.8244 100.354 13.7932C102.775 15.4869 103.736 18.0261 102.985 20.686C102.204 23.4565 100.257 25.0139 97.4803 25.5767C95.7308 25.9314 94.0351 25.7104 92.4059 25.0191C90.974 24.4125 89.5678 23.8266 88.6302 25.97C88.5713 25.88 88.5098 25.7901 88.4509 25.6975C88.4509 23.0016 88.4509 20.3082 88.4509 17.6123C88.5278 17.5994 88.6021 17.5814 88.6764 17.5635Z" fill="white"/>
<path d="M121.085 10.1053C120.982 9.79431 120.872 9.48591 120.782 9.17237C120.175 7.05468 118.938 5.44842 116.948 4.47953C115.782 3.91413 114.548 3.77792 113.303 4.1737C110.974 4.91643 110.367 7.43761 112.153 9.10041C112.801 9.70179 113.585 10.1747 114.358 10.6193C115.941 11.5291 117.609 12.2949 119.146 13.2715C122.376 15.3224 123.498 18.3319 122.307 21.3902C121.144 24.3791 117.734 26.2218 114.281 25.6487C113.282 25.4817 112.304 25.1347 111.346 24.7878C109.765 24.2121 109.443 24.266 108.362 25.5279C108.287 25.6127 108.177 25.6667 107.949 25.8312C107.949 22.9939 107.949 20.2954 107.949 17.5994C108.029 17.5866 108.111 17.5737 108.19 17.5583C108.285 17.8744 108.387 18.188 108.474 18.5066C109.084 20.7246 110.221 22.5647 112.224 23.7829C113.508 24.5642 114.894 24.87 116.372 24.5719C117.765 24.2892 118.772 23.4745 119.169 22.0867C119.556 20.7348 119.028 19.5861 117.993 18.7457C117.181 18.0852 116.246 17.5686 115.337 17.0366C113.956 16.2296 112.499 15.546 111.164 14.6696C109.256 13.4155 107.975 11.7013 107.921 9.29316C107.821 4.86503 111.981 1.88896 116.466 3.19966C117.26 3.43096 118.003 3.82675 118.772 4.14286C119.963 4.63373 120.319 4.46925 120.777 3.23821C120.818 3.1277 120.882 3.0249 120.936 2.91953C121.028 2.92724 121.123 2.93495 121.215 2.94009C121.215 5.31221 121.215 7.68433 121.215 10.0565C121.174 10.0744 121.131 10.0899 121.085 10.1053Z" fill="white"/>
<path d="M148.534 3.69053C146.083 4.52065 145.46 6.75656 144.582 8.74832C142.225 14.0914 139.938 19.4653 137.617 24.8237C137.473 25.1578 137.284 25.4714 136.994 26.0214C136.715 25.4791 136.523 25.1707 136.387 24.8392C134.005 19.0926 131.661 13.3332 129.236 7.60723C128.577 6.05237 128.313 4.11716 126.103 3.68796C126.149 3.616 126.195 3.54661 126.244 3.47465C129.484 3.47465 132.727 3.47465 135.967 3.47465C135.977 3.54147 135.988 3.60829 135.998 3.67511C135.588 3.7368 135.173 3.78563 134.766 3.86016C133.68 4.05805 133.331 4.58233 133.664 5.6386C133.905 6.39933 134.238 7.13435 134.543 7.87451C135.908 11.195 137.274 14.5154 138.644 17.8359C138.752 18.0954 138.89 18.3422 139.087 18.7379C139.279 18.4218 139.425 18.2342 139.518 18.0235C140.998 14.5745 142.474 11.1256 143.949 7.67405C144.026 7.49672 144.095 7.31682 144.162 7.13692C144.935 5.01152 144.477 4.21225 142.248 3.79334C142.105 3.76764 141.969 3.70595 141.848 3.4875C144.031 3.4875 146.213 3.4875 148.396 3.4875C148.442 3.55689 148.488 3.62371 148.534 3.69053Z" fill="white"/>
<path d="M151.375 3.46951C154.938 3.46951 158.498 3.46951 162.061 3.46951C162.067 3.55175 162.074 3.634 162.079 3.71881C161.79 3.74451 161.498 3.76507 161.211 3.80105C159.894 3.96553 159.316 4.52322 159.3 5.8699C159.254 9.72235 159.262 13.5748 159.254 17.4272C159.251 19.0978 159.234 20.7657 159.277 22.4336C159.323 24.2172 159.795 24.6901 161.549 24.8674C161.726 24.8854 161.898 24.9342 162.059 25.1527C158.503 25.1527 154.946 25.1527 151.39 25.1527C151.377 25.0987 151.362 25.0448 151.349 24.9908C151.582 24.9471 151.815 24.888 152.054 24.8649C153.665 24.7107 154.228 24.1221 154.236 22.4336C154.257 18.6788 154.244 14.9215 154.246 11.1667C154.246 9.59385 154.254 8.021 154.244 6.44816C154.231 4.45897 153.765 3.95525 151.805 3.77278C151.657 3.75993 151.513 3.7111 151.367 3.68026C151.367 3.6083 151.372 3.5389 151.375 3.46951Z" fill="white"/>
<path d="M27.7988 11.8966C27.6169 10.7478 27.3044 9.66067 26.8792 8.64295C26.8741 8.63267 26.8715 8.62496 26.8664 8.61468C26.8049 8.46819 26.7409 8.3217 26.6743 8.17777C26.5821 7.97731 26.4847 7.78199 26.3823 7.58924C26.3285 7.48644 26.2747 7.38364 26.2183 7.28341C25.9417 6.78997 25.642 6.31452 25.3167 5.85962V5.85705C25.1835 5.67715 25.0503 5.49982 24.912 5.32506C24.8428 5.23768 24.7736 5.1503 24.7019 5.06549C24.561 4.89844 24.4176 4.73139 24.269 4.56948C24.1307 4.41785 23.9898 4.26879 23.8464 4.12744C23.6927 3.97324 23.539 3.82418 23.3776 3.67769C23.3059 3.61087 23.2316 3.54404 23.1573 3.48236C20.9518 1.55229 18.1777 0.331531 15.2525 0.0539702C15.1526 0.0462602 15.0501 0.0385502 14.9502 0.0308401C14.8375 0.0231301 14.7273 0.0179901 14.6146 0.0128501C14.4251 0.00514002 14.2304 0 14.0383 0H13.9999C13.7924 0 13.5875 0.00514002 13.3825 0.0154201C13.3441 0.0179901 13.3031 0.0205601 13.2647 0.0205601C13.1622 0.0282701 13.0598 0.0334101 12.9573 0.0411202C12.8395 0.0514002 12.7217 0.0616803 12.6038 0.0745303C12.486 0.0873804 12.3682 0.10023 12.2503 0.11565C12.1402 0.131071 12.0275 0.146491 11.9173 0.164481C11.6791 0.200461 11.4435 0.244151 11.2104 0.295551C11.0951 0.318681 10.9824 0.344381 10.8671 0.372652C10.7544 0.398352 10.6417 0.426622 10.529 0.457462C10.406 0.490872 10.2831 0.526852 10.1601 0.562832C10.0602 0.591103 9.96291 0.621943 9.86557 0.655353C9.59661 0.742733 9.32765 0.840394 9.05869 0.945764C4.30962 2.82187 0.99501 7.2243 0.190691 12.1382C0.165076 12.2975 0.142022 12.4568 0.12153 12.6162C0.101038 12.755 0.0856688 12.8963 0.0728611 13.0377C0.0702996 13.0634 0.0677381 13.0916 0.0651766 13.1173C0.0600535 13.1636 0.0549305 13.2073 0.0523689 13.2535C0.0421228 13.382 0.0318767 13.5131 0.0241922 13.6416C0.0190691 13.7316 0.0139461 13.8215 0.0113846 13.914C0.00882303 14.004 0.0062615 14.0939 0.00369998 14.1839C0.00113846 14.2379 -0.00142307 14.2893 0.00113846 14.3407C0.00113846 14.3664 -0.00142307 14.3921 0.00113846 14.4152C0.00113846 15.3995 0.0984764 16.389 0.308521 17.3707C1.22555 21.6703 3.82293 25.1912 7.25025 27.1933C7.31941 27.2344 7.39114 27.2755 7.46286 27.3141L7.64729 27.4143C9.54538 28.4166 11.6945 28.9872 13.9691 29H14.0383C14.1356 29 14.2304 29 14.3277 28.9949C21.8228 28.7687 27.8039 22.6624 28.0703 14.9472C28.0754 14.8187 28.078 14.6902 28.078 14.5617C27.9884 13.6725 27.9397 12.7781 27.7988 11.8966ZM2.16819 12.0225C3.23378 6.55353 7.75487 2.37469 13.275 2.0226C13.4235 2.01232 13.5747 2.00718 13.7258 2.00204C13.7309 2.00204 13.736 1.99947 13.7412 2.00204C13.8257 1.99947 13.9128 1.9969 13.9973 1.9969H14.1459C14.215 1.9969 14.2816 1.99947 14.3508 2.00204C14.4533 2.00204 14.5583 2.00718 14.6607 2.01232C14.7939 2.02003 14.9271 2.02774 15.0603 2.03802C15.1474 2.0483 15.2345 2.05601 15.3216 2.06629C15.3652 2.07143 15.4087 2.074 15.4497 2.08171C15.5317 2.08942 15.6136 2.10227 15.6956 2.11255C15.7007 2.11512 15.7084 2.11512 15.7135 2.11769C15.88 2.14082 16.0491 2.16909 16.2156 2.19993C21.0748 3.10714 24.9222 7.01613 25.9007 12.002C25.9622 12.3104 25.7701 12.6136 25.4653 12.6856L19.3944 14.1351C19.0589 11.9865 18.316 10.1618 17.481 8.69435C16.0773 6.21943 14.4148 4.74938 14.0383 4.42556C13.6771 4.73396 12.1402 6.0935 10.7749 8.37823C10.7749 8.38081 10.7723 8.38594 10.7698 8.38851C9.86301 9.9151 9.03307 11.8503 8.67958 14.1608L2.60365 12.7087C2.29883 12.6342 2.10927 12.3309 2.16819 12.0225ZM12.2888 26.8746C11.6535 26.7795 11.0362 26.633 10.4393 26.4403C10.4189 26.4351 10.3984 26.4274 10.3804 26.4223C10.1192 26.3426 9.86045 26.2475 9.59917 26.1344C9.57099 26.1242 9.54538 26.1139 9.5172 26.0985C5.13187 24.2789 2.01962 19.879 1.93765 14.7159C2.92128 14.811 4.04322 14.9806 5.25995 15.271C6.48948 15.564 7.57557 15.9212 8.50284 16.2836C8.50028 16.3144 8.49771 16.3607 8.49771 16.4172V16.5534C8.49771 16.7488 8.50028 16.9389 8.50796 17.1317C8.66934 21.6523 10.716 24.9702 12.2888 26.872C12.2888 26.872 12.2888 26.872 12.2888 26.8746ZM14.0383 26.1319C13.6156 25.6847 10.6058 22.3771 10.6058 16.8259C10.6058 15.5974 10.7544 14.4769 10.9875 13.4746C11.4563 11.1359 12.4783 8.98219 14.0434 7.44532C15.6008 8.9899 16.6101 11.1256 17.0814 13.4412C17.3196 14.4512 17.4707 15.582 17.4707 16.8259C17.4707 22.3771 14.4609 25.6847 14.0383 26.1319ZM22.5938 23.5387C22.5938 23.5387 19.9375 26.1242 15.8518 26.8643C15.8365 26.8669 15.8186 26.8669 15.8186 26.8669C15.8083 26.8695 15.7981 26.872 15.7878 26.872C15.8416 26.8026 15.9005 26.7307 15.9594 26.6587C17.5092 24.7209 19.4175 21.475 19.5686 17.1111C19.5763 16.9261 19.5789 16.7411 19.5789 16.5534C19.5789 16.4558 19.5789 16.3581 19.5763 16.2605C20.5113 15.8724 21.6409 15.4817 22.9447 15.1811C24.1256 14.9061 25.2065 14.7621 26.1415 14.6928C26.1466 15.4483 26.1005 20.1232 22.5938 23.5387Z" fill="white"/>
</svg>
